<svg width="20" height="20" aria-hidden="true"><path d="M11.998 10a2 2 0 1 1-4 0 2 2 0 0 1 4 0"/><path fill-rule="evenodd" d="M16.175 7.567 18 10l-1.825 2.433a10 10 0 0 1-2.855 2.575l-.232.14a6 6 0 0 1-6.175 0l-.233-.14a10 10 0 0 1-2.855-2.575L2 10l1.825-2.433A10 10 0 0 1 6.68 4.992l.233-.14a6 6 0 0 1 6.175 0l.232.14a10 10 0 0 1 2.855 2.575m-1.6 3.666a8 8 0 0 1-2.28 2.058l-.24.144a4 4 0 0 1-4.11 0l-.239-.144a8 8 0 0 1-2.28-2.058L4.5 10l.925-1.233a8 8 0 0 1 2.28-2.058l.24-.144a4 4 0 0 1 4.11 0l.239.144a8 8 0 0 1 2.28 2.058L15.5 10z" clip-rule="evenodd"/></svg>