<svg width="20" height="20" aria-hidden="true"><path fill-rule="evenodd" d="m16.5 18 1.5-1.5-2.876-2.876a10 10 0 0 0 1.051-1.191L18 10l-1.825-2.433a10 10 0 0 0-2.855-2.575l-.232-.14a6 6 0 0 0-6.175 0l-.35.211L3.5 2 2 3.5zm-2.79-5.79a8 8 0 0 0 .865-.977L15.5 10l-.924-1.233a8 8 0 0 0-2.281-2.058l-.24-.144a4 4 0 0 0-4.034-.044l1.53 1.53a2 2 0 0 1 2.397 2.397z" clip-rule="evenodd"/><path d="m11.35 15.85-1.883-1.883a4 4 0 0 1-1.522-.532l-.239-.144a8 8 0 0 1-2.28-2.058L4.5 10l.428-.571L3.5 8 2 10l1.825 2.433a10 10 0 0 0 2.855 2.575q.116.068.233.14a6 6 0 0 0 4.437.702"/></svg>